<?xml version="1.0" encoding="utf-8" standalone="no"?>
<!DOCTYPE svg PUBLIC "-//W3C//DTD SVG 1.1//EN"
  "http://www.w3.org/Graphics/SVG/1.1/DTD/svg11.dtd">
<svg xmlns:xlink="http://www.w3.org/1999/xlink" width="480.24pt" height="313.809094pt" viewBox="0 0 480.24 313.809094" xmlns="http://www.w3.org/2000/svg" version="1.1">
 <metadata>
  <rdf:RDF xmlns:dc="http://purl.org/dc/elements/1.1/" xmlns:cc="http://creativecommons.org/ns#" xmlns:rdf="http://www.w3.org/1999/02/22-rdf-syntax-ns#">
   <cc:Work>
    <dc:type rdf:resource="http://purl.org/dc/dcmitype/StillImage"/>
    <dc:format>image/svg+xml</dc:format>
    <dc:creator>
     <cc:Agent>
      <dc:title>Matplotlib v3.11.0, https://matplotlib.org/</dc:title>
     </cc:Agent>
    </dc:creator>
   </cc:Work>
  </rdf:RDF>
 </metadata>
 <defs>
  <style type="text/css">*{stroke-linejoin: round; stroke-linecap: butt}</style>
 </defs>
 <g id="figure_1">
  <g id="patch_1">
   <path d="M 0 313.809094
L 480.24 313.809094
L 480.24 0
L 0 0
z
" style="fill: #ffffff"/>
  </g>
  <g id="axes_1">
   <g id="patch_2">
    <path d="M 20.8632 135.630694
L 120.8568 135.630694
Q 125.0232 135.630694 125.0232 131.195494
L 125.0232 77.418694
Q 125.0232 72.983494 120.8568 72.983494
L 20.8632 72.983494
Q 16.6968 72.983494 16.6968 77.418694
L 16.6968 131.195494
Q 16.6968 135.630694 20.8632 135.630694
z
" clip-path="url(#p12dfcd0855)" style="fill: #ffffff; stroke: #17211b; stroke-width: 1.8; stroke-linejoin: miter"/>
   </g>
   <g id="patch_3">
    <path d="M 190.1232 135.630694
L 290.1168 135.630694
Q 294.2832 135.630694 294.2832 131.195494
L 294.2832 77.418694
Q 294.2832 72.983494 290.1168 72.983494
L 190.1232 72.983494
Q 185.9568 72.983494 185.9568 77.418694
L 185.9568 131.195494
Q 185.9568 135.630694 190.1232 135.630694
z
" clip-path="url(#p12dfcd0855)" style="fill: #ffffff; stroke: #17211b; stroke-width: 1.8; stroke-linejoin: miter"/>
   </g>
   <g id="patch_4">
    <path d="M 359.3832 135.630694
L 459.3768 135.630694
Q 463.5432 135.630694 463.5432 131.195494
L 463.5432 77.418694
Q 463.5432 72.983494 459.3768 72.983494
L 359.3832 72.983494
Q 355.2168 72.983494 355.2168 77.418694
L 355.2168 131.195494
Q 355.2168 135.630694 359.3832 135.630694
z
" clip-path="url(#p12dfcd0855)" style="fill: #ffffff; stroke: #176b55; stroke-width: 1.8; stroke-linejoin: miter"/>
   </g>
   <g id="patch_5">
    <path d="M 359.3832 263.142694
L 459.3768 263.142694
Q 463.5432 263.142694 463.5432 258.707494
L 463.5432 204.930694
Q 463.5432 200.495494 459.3768 200.495494
L 359.3832 200.495494
Q 355.2168 200.495494 355.2168 204.930694
L 355.2168 258.707494
Q 355.2168 263.142694 359.3832 263.142694
z
" clip-path="url(#p12dfcd0855)" style="fill: #ffffff; stroke: #17211b; stroke-width: 1.8; stroke-linejoin: miter"/>
   </g>
   <g id="patch_6">
    <path d="M 190.1232 263.142694
L 290.1168 263.142694
Q 294.2832 263.142694 294.2832 258.707494
L 294.2832 204.930694
Q 294.2832 200.495494 290.1168 200.495494
L 190.1232 200.495494
Q 185.9568 200.495494 185.9568 204.930694
L 185.9568 258.707494
Q 185.9568 263.142694 190.1232 263.142694
z
" clip-path="url(#p12dfcd0855)" style="fill: #ffffff; stroke: #176b55; stroke-width: 1.8; stroke-linejoin: miter"/>
   </g>
   <g id="patch_7">
    <path d="M 20.8632 263.142694
L 120.8568 263.142694
Q 125.0232 263.142694 125.0232 258.707494
L 125.0232 204.930694
Q 125.0232 200.495494 120.8568 200.495494
L 20.8632 200.495494
Q 16.6968 200.495494 16.6968 204.930694
L 16.6968 258.707494
Q 16.6968 263.142694 20.8632 263.142694
z
" clip-path="url(#p12dfcd0855)" style="fill: #ffffff; stroke: #176b55; stroke-width: 1.8; stroke-linejoin: miter"/>
   </g>
   <g id="text_1">
    <text style="font-weight: 700; font-size: 11px; font-family: 'DejaVu Sans'; text-anchor: middle; fill: #17211b" x="70.86" y="98.017345" transform="rotate(-0 70.86 98.017345)">Initialize</text>
   </g>
   <g id="text_2">
    <text style="font-size: 8.5px; font-family: 'DejaVu Sans'; text-anchor: middle; fill: #637168" x="70.86" y="118.435034" transform="rotate(-0 70.86 118.435034)">task-budget routes</text>
   </g>
   <g id="text_3">
    <text style="font-weight: 700; font-size: 11px; font-family: 'DejaVu Sans'; text-anchor: middle; fill: #17211b" x="240.12" y="98.017345" transform="rotate(-0 240.12 98.017345)">Evaluate</text>
   </g>
   <g id="text_4">
    <text style="font-size: 8.5px; font-family: 'DejaVu Sans'; text-anchor: middle; fill: #637168" x="240.12" y="118.435034" transform="rotate(-0 240.12 118.435034)">source-aware loss</text>
   </g>
   <g id="text_5">
    <text style="font-weight: 700; font-size: 11px; font-family: 'DejaVu Sans'; text-anchor: middle; fill: #17211b" x="409.38" y="98.017345" transform="rotate(-0 409.38 98.017345)">Select</text>
   </g>
   <g id="text_6">
    <text style="font-size: 8.5px; font-family: 'DejaVu Sans'; text-anchor: middle; fill: #637168" x="409.38" y="118.435034" transform="rotate(-0 409.38 118.435034)">Pareto finalists</text>
   </g>
   <g id="text_7">
    <text style="font-weight: 700; font-size: 11px; font-family: 'DejaVu Sans'; text-anchor: middle; fill: #17211b" x="409.38" y="225.529345" transform="rotate(-0 409.38 225.529345)">Evolve</text>
   </g>
   <g id="text_8">
    <text style="font-size: 8.5px; font-family: 'DejaVu Sans'; text-anchor: middle; fill: #637168" x="409.38" y="245.947034" transform="rotate(-0 409.38 245.947034)">mutate and crossover</text>
   </g>
   <g id="text_9">
    <text style="font-weight: 700; font-size: 11px; font-family: 'DejaVu Sans'; text-anchor: middle; fill: #17211b" x="240.12" y="225.528916" transform="rotate(-0 240.12 225.528916)">Freeze</text>
   </g>
   <g id="text_10">
    <text style="font-size: 8.5px; font-family: 'DejaVu Sans'; text-anchor: middle; fill: #637168" x="240.12" y="245.947034" transform="rotate(-0 240.12 245.947034)">three-seed winner</text>
   </g>
   <g id="text_11">
    <text style="font-weight: 700; font-size: 11px; font-family: 'DejaVu Sans'; text-anchor: middle; fill: #17211b" x="70.86" y="225.529345" transform="rotate(-0 70.86 225.529345)">Audit</text>
   </g>
   <g id="text_12">
    <text style="font-size: 8.5px; font-family: 'DejaVu Sans'; text-anchor: middle; fill: #637168" x="70.86" y="245.947034" transform="rotate(-0 70.86 245.947034)">held-out transfer</text>
   </g>
   <g id="patch_8">
    <path d="M 127.541248 104.029894
Q 154.708611 104.029894 179.863513 104.029894
" style="fill: none; stroke: #e36b3d; stroke-width: 1.8; stroke-linecap: round"/>
    <path d="M 175.863513 102.029894
L 179.863513 104.029894
L 175.863513 106.029894
" style="fill: none; stroke: #e36b3d; stroke-width: 1.8; stroke-linecap: round"/>
   </g>
   <g id="patch_9">
    <path d="M 296.801248 104.029894
Q 323.968611 104.029894 349.123513 104.029894
" style="fill: none; stroke: #e36b3d; stroke-width: 1.8; stroke-linecap: round"/>
    <path d="M 345.123513 102.029894
L 349.123513 104.029894
L 345.123513 106.029894
" style="fill: none; stroke: #e36b3d; stroke-width: 1.8; stroke-linecap: round"/>
   </g>
   <g id="patch_10">
    <path d="M 409.38 138.182341
Q 409.38 167.230604 409.38 194.266404
" style="fill: none; stroke: #e36b3d; stroke-width: 1.8; stroke-linecap: round"/>
    <path d="M 411.38 190.266404
L 409.38 194.266404
L 407.38 190.266404
" style="fill: none; stroke: #e36b3d; stroke-width: 1.8; stroke-linecap: round"/>
   </g>
   <g id="patch_11">
    <path d="M 351.136352 231.541894
Q 323.968989 231.541894 298.814087 231.541894
" style="fill: none; stroke: #e36b3d; stroke-width: 1.8; stroke-linecap: round"/>
    <path d="M 302.814087 233.541894
L 298.814087 231.541894
L 302.814087 229.541894
" style="fill: none; stroke: #e36b3d; stroke-width: 1.8; stroke-linecap: round"/>
   </g>
   <g id="patch_12">
    <path d="M 181.876352 231.541894
Q 154.708989 231.541894 129.554087 231.541894
" style="fill: none; stroke: #e36b3d; stroke-width: 1.8; stroke-linecap: round"/>
    <path d="M 133.554087 233.541894
L 129.554087 231.541894
L 133.554087 229.541894
" style="fill: none; stroke: #e36b3d; stroke-width: 1.8; stroke-linecap: round"/>
   </g>
   <g id="patch_13">
    <path d="M 385.644349 170.749118
Q 324.001465 116.238377 243.368758 135.403227
" style="fill: none; stroke: #637168; stroke-width: 1.2; stroke-linecap: round"/>
    <path d="M 247.069714 136.27094
L 243.368758 135.403227
L 246.283501 132.96309
" style="fill: none; stroke: #637168; stroke-width: 1.2; stroke-linecap: round"/>
   </g>
   <g id="text_13">
    <text style="font-size: 8.5px; font-family: 'DejaVu Sans'; text-anchor: middle; fill: #637168" x="393.756" y="180.537094" transform="rotate(-0 393.756 180.537094)">repeat</text>
   </g>
   <g id="text_14">
    <text style="font-size: 8.5px; font-family: 'DejaVu Sans'; text-anchor: middle; fill: #637168" x="323.448" y="217.681894" transform="rotate(-0 323.448 217.681894)">finish</text>
   </g>
   <g id="text_15">
    <text style="font-weight: 700; font-size: 14px; font-family: 'DejaVu Sans'; text-anchor: start; fill: #17211b" x="5.76" y="16.397812" transform="rotate(-0 5.76 16.397812)">Evolutionary search at a matched skip budget</text>
   </g>
  </g>
 </g>
 <defs>
  <clipPath id="p12dfcd0855">
   <rect x="5.76" y="19.761094" width="468.72" height="288.288"/>
  </clipPath>
 </defs>
</svg>
